# xmcd
#
# Track frame offsets:
# 150
# 12822
# 25188
# 38655
# 52500
# 65379
# 76309
# 89167
# 100595
# 112599
# 125092
# 136467
# 146999
# 158912
# 169815
# 181681
# 191383
# 202956
# 215951
# 228098
#
# Disc length: 3174 seconds
#
#
# Revision: 0
# Processed by: cddbd v1.5PL3 Copyright (c) Steve Scherf et al.
# Submitted via: FreeRIP 2.53 
#
DISCID=040c6414
DTITLE=Smith, Carl - The Essential Carl Smith
DYEAR=1900
DGENRE=
TTITLE0=Guilty Conscience 1950's
TTITLE1=I Just Dropped In To Say
TTITLE2=I Overlooked An Orchid
TTITLE3=If Teardrops Were Pennies
TTITLE4=Let's Live A Little
TTITLE5=When You Feel Like You're In
TTITLE6=Let Old Mother Nature Have Her
TTITLE7=It's A Lovely World
TTITLE8=Are You Teasing Me
TTITLE9=This Orchid Means Goodbye
TTITLE10=Hey Joe
TTITLE11=Trademark
TTITLE12=Just Wait Till I Get You Alone
TTITLE13=Dog-Gone It, Baby, I'm In Love
TTITLE14=Back Up Buddy
TTITLE15=Go Boy Go
TTITLE16=Loose Talk
TTITLE17=Kisses Don't Lie
TTITLE18=There She Goes
TTITLE19=You Are The One
EXTD=
EXTT0=
EXTT1=
EXTT2=
EXTT3=
EXTT4=
EXTT5=
EXTT6=
EXTT7=
EXTT8=
EXTT9=
EXTT10=
EXTT11=
EXTT12=
EXTT13=
EXTT14=
EXTT15=
EXTT16=
EXTT17=
EXTT18=
EXTT19=
PLAYORDER=
